Gait_medial_08_analogdata.mot
version=1
nRows=27
nColumns=19
inDegrees=yes
endheader
time	1_ground_force_vx	1_ground_force_vy	1_ground_force_vz	1_ground_force_px	1_ground_force_py	1_ground_force_pz	1_ground_torque_x	1_ground_torque_y	1_ground_torque_z	2_ground_force_vx	2_ground_force_vy	2_ground_force_vz	2_ground_force_px	2_ground_force_py	2_ground_force_pz	2_ground_torque_x	2_ground_torque_y	2_ground_torque_z
0.460000	-16.897260	515.618591	-16.133517	-0.154094	0.000000	-0.277037	-0.047501	1.449494	-0.045354	0.000000	0.000000	-0.000000	-0.200000	0.000000	0.302000	0.000000	0.000000	-0.000000
0.461000	-17.788118	517.368164	-17.460557	-0.153199	0.000000	-0.276926	-0.041554	1.208592	-0.040789	0.000000	0.000000	-0.000000	-0.200000	0.000000	0.302000	0.000000	0.000000	-0.000000
0.462000	-17.966289	517.368164	-16.664332	-0.154412	0.000000	-0.277450	-0.037295	1.073980	-0.034593	0.000000	0.000000	-0.000000	-0.200000	0.000000	0.302000	0.000000	0.000000	-0.000000
0.463000	-17.342689	516.318420	-16.575864	-0.153533	0.000000	-0.276699	-0.040078	1.193172	-0.038306	0.000000	0.000000	-0.000000	-0.200000	0.000000	0.302000	0.000000	0.000000	-0.000000
0.464000	-16.808174	507.220428	-14.541072	-0.153418	0.000000	-0.276382	-0.045475	1.372312	-0.039342	0.000000	0.000000	-0.000000	-0.200000	0.000000	0.302000	0.000000	0.000000	-0.000000
0.465000	-17.699031	516.318420	-16.133517	-0.154185	0.000000	-0.275975	-0.033726	0.983850	-0.030743	0.000000	0.000000	-0.000000	-0.200000	0.000000	0.302000	0.000000	0.000000	-0.000000
0.466000	-17.788118	517.718079	-14.894949	-0.153869	0.000000	-0.275799	-0.046683	1.358694	-0.039090	0.000000	0.000000	-0.000000	-0.200000	0.000000	0.302000	0.000000	0.000000	-0.000000
0.467000	-17.699031	517.018250	-14.718010	-0.154812	0.000000	-0.275304	-0.037262	1.088481	-0.030986	0.000000	0.000000	-0.000000	-0.200000	0.000000	0.302000	0.000000	0.000000	-0.000000
0.468000	-17.253603	511.419495	-14.010257	-0.153460	0.000000	-0.277817	-0.037849	1.121885	-0.030734	0.000000	0.000000	-0.000000	-0.200000	0.000000	0.302000	0.000000	0.000000	-0.000000
0.469000	-16.451832	516.668335	-13.656379	-0.154636	0.000000	-0.275204	-0.039940	1.254324	-0.033154	0.000000	0.000000	-0.000000	-0.200000	0.000000	0.302000	0.000000	0.000000	-0.000000
0.470000	-20.015264	517.018250	-14.541072	-0.154397	0.000000	-0.274415	-0.036440	0.941295	-0.026474	0.000000	0.000000	-0.000000	-0.200000	0.000000	0.302000	0.000000	0.000000	-0.000000
0.471000	-17.520860	520.517517	-14.098725	-0.154063	0.000000	-0.274150	-0.038387	1.140406	-0.030889	0.000000	0.000000	-0.000000	-0.200000	0.000000	0.302000	0.000000	0.000000	-0.000000
0.472000	-16.808174	516.318420	-12.683218	-0.153772	0.000000	-0.275529	-0.032903	1.010709	-0.024828	0.000000	0.000000	-0.000000	-0.200000	0.000000	0.302000	0.000000	0.000000	-0.000000
0.473000	-16.630003	512.469238	-12.771687	-0.153489	0.000000	-0.274278	-0.036719	1.131526	-0.028200	0.000000	0.000000	-0.000000	-0.200000	0.000000	0.302000	0.000000	0.000000	-0.000000
0.474000	-16.630003	520.167542	-14.098725	-0.154740	0.000000	-0.273240	-0.032929	1.029994	-0.027917	0.000000	0.000000	-0.000000	-0.200000	0.000000	0.302000	0.000000	0.000000	-0.000000
0.475000	-17.075432	518.767883	-12.948625	-0.154624	0.000000	-0.272813	-0.032510	0.987686	-0.024653	0.000000	0.000000	-0.000000	-0.200000	0.000000	0.302000	0.000000	0.000000	-0.000000
0.476000	-17.164518	517.718079	-12.329341	-0.154734	0.000000	-0.272775	-0.041256	1.244363	-0.029634	0.000000	0.000000	-0.000000	-0.200000	0.000000	0.302000	0.000000	0.000000	-0.000000
0.477000	-16.451832	518.068054	-11.798525	-0.152600	0.000000	-0.273648	-0.025358	0.798513	-0.018185	0.000000	0.000000	-0.000000	-0.200000	0.000000	0.302000	0.000000	0.000000	-0.000000
0.478000	-16.540917	510.369720	-10.383017	-0.154172	0.000000	-0.271287	-0.032951	1.016715	-0.020684	0.000000	0.000000	-0.000000	-0.200000	0.000000	0.302000	0.000000	0.000000	-0.000000
0.479000	-16.095487	521.917175	-13.390972	-0.155603	0.000000	-0.271471	-0.026633	0.863611	-0.022158	0.000000	0.000000	-0.000000	-0.200000	0.000000	0.302000	0.000000	0.000000	-0.000000
0.480000	-16.451832	521.217346	-10.913833	-0.156112	0.000000	-0.271259	-0.027799	0.880724	-0.018442	0.000000	0.000000	-0.000000	-0.200000	0.000000	0.302000	0.000000	0.000000	-0.000000
0.481000	-16.451832	520.517517	-10.648426	-0.154243	0.000000	-0.270845	-0.015984	0.505716	-0.010346	0.000000	0.000000	-0.000000	-0.200000	0.000000	0.302000	0.000000	0.000000	-0.000000
0.482000	-15.560974	514.568787	-9.763733	-0.154478	0.000000	-0.271605	-0.030130	0.996324	-0.018905	0.000000	0.000000	-0.000000	-0.200000	0.000000	0.302000	0.000000	0.000000	-0.000000
0.483000	-16.273659	523.316895	-8.436695	-0.156149	0.000000	-0.269983	-0.034169	1.098792	-0.017714	0.000000	0.000000	-0.000000	-0.200000	0.000000	0.302000	0.000000	0.000000	-0.000000
0.484000	-15.026459	518.068054	-9.763733	-0.155566	0.000000	-0.269574	-0.025859	0.891537	-0.016802	0.000000	0.000000	-0.000000	-0.200000	0.000000	0.302000	0.000000	0.000000	-0.000000
0.485000	-16.006403	518.767883	-9.232917	-0.155424	0.000000	-0.269162	-0.020098	0.651381	-0.011593	0.000000	0.000000	-0.000000	-0.200000	0.000000	0.302000	0.000000	0.000000	-0.000000
0.486000	-15.204630	517.368164	-9.409856	-0.154464	0.000000	-0.268885	-0.012004	0.408475	-0.007429	0.000000	0.000000	-0.000000	-0.200000	0.000000	0.302000	0.000000	0.000000	-0.000000
